<svg xmlns="http://www.w3.org/2000/svg" xmlns:xlink="http://www.w3.org/1999/xlink" width="250" zoomAndPan="magnify" viewBox="0 0 187.5 30.000001" height="40" preserveAspectRatio="xMidYMid meet" version="1.0"><defs><g/></defs><g fill="#ffc1b2" fill-opacity="0.302"><g transform="translate(3.674078, 24.902186)"><g><path d="M 19.878906 -1.542969 L 19.878906 -16.703125 C 19.878906 -17.105469 20.007812 -17.472656 20.300781 -17.785156 C 20.375 -17.878906 20.390625 -17.96875 20.355469 -18.078125 C 20.300781 -18.191406 20.226562 -18.246094 20.117188 -18.246094 L 16.246094 -18.246094 L 16.226562 -18.226562 L 16.226562 -18.246094 L 15.730469 -18.246094 C 15.601562 -18.246094 15.511719 -18.191406 15.472656 -18.078125 C 15.417969 -17.96875 15.417969 -17.878906 15.492188 -17.785156 C 15.566406 -17.675781 15.546875 -17.601562 15.472656 -17.546875 L 11.691406 -14.058594 C 11.5625 -13.949219 11.417969 -13.914062 11.269531 -13.914062 C 11.125 -13.914062 10.996094 -13.949219 10.882812 -14.058594 L 7.046875 -17.585938 C 6.976562 -17.640625 6.976562 -17.695312 7.046875 -17.769531 C 7.121094 -17.859375 7.140625 -17.96875 7.101562 -18.078125 C 7.046875 -18.191406 6.957031 -18.246094 6.828125 -18.246094 L 2.496094 -18.246094 C 2.367188 -18.246094 2.277344 -18.191406 2.238281 -18.078125 C 2.183594 -17.96875 2.183594 -17.878906 2.257812 -17.785156 L 2.277344 -17.769531 C 2.550781 -17.457031 2.699219 -17.089844 2.699219 -16.683594 L 2.699219 -1.558594 C 2.699219 -1.136719 2.550781 -0.769531 2.277344 -0.476562 L 2.257812 -0.457031 C 2.183594 -0.347656 2.183594 -0.257812 2.238281 -0.148438 C 2.277344 -0.0351562 2.367188 0 2.496094 0 L 6.554688 0 C 6.664062 0 6.753906 -0.0351562 6.808594 -0.148438 C 6.847656 -0.257812 6.847656 -0.347656 6.792969 -0.457031 L 6.753906 -0.496094 C 6.460938 -0.789062 6.332031 -1.15625 6.332031 -1.578125 L 6.332031 -12.703125 C 6.332031 -12.8125 6.371094 -12.886719 6.480469 -12.921875 C 6.589844 -12.957031 6.679688 -12.957031 6.773438 -12.886719 L 10.882812 -9.066406 C 10.996094 -8.957031 11.125 -8.902344 11.289062 -8.902344 C 11.433594 -8.902344 11.582031 -8.957031 11.691406 -9.066406 L 15.804688 -12.886719 C 15.878906 -12.957031 15.96875 -12.957031 16.078125 -12.921875 C 16.1875 -12.886719 16.246094 -12.8125 16.246094 -12.703125 L 16.246094 -1.597656 C 16.246094 -1.191406 16.097656 -0.824219 15.804688 -0.515625 L 15.765625 -0.457031 C 15.695312 -0.347656 15.695312 -0.257812 15.75 -0.148438 C 15.785156 -0.0351562 15.878906 0 16.003906 0 L 20.117188 0 C 20.226562 0 20.300781 -0.0351562 20.355469 -0.148438 C 20.390625 -0.257812 20.375 -0.347656 20.300781 -0.457031 C 20.007812 -0.753906 19.878906 -1.121094 19.878906 -1.542969 Z M 19.878906 -1.542969 "/></g></g></g><g fill="#ffc1b2" fill-opacity="0.302"><g transform="translate(26.250529, 24.902186)"><g><path d="M 13.875 -15.382812 C 13.179688 -16.300781 12.351562 -16.996094 11.433594 -17.492188 C 10.5 -17.96875 9.527344 -18.226562 8.5 -18.226562 C 7.46875 -18.226562 6.480469 -17.96875 5.542969 -17.492188 C 4.605469 -16.996094 3.800781 -16.300781 3.101562 -15.382812 C 2.441406 -14.519531 1.945312 -13.546875 1.617188 -12.480469 C 1.265625 -11.417969 1.101562 -10.277344 1.101562 -9.105469 C 1.101562 -7.929688 1.265625 -6.792969 1.617188 -5.726562 C 1.945312 -4.644531 2.441406 -3.6875 3.101562 -2.84375 C 3.800781 -1.925781 4.605469 -1.210938 5.542969 -0.734375 C 6.480469 -0.238281 7.46875 0 8.5 0 C 9.527344 0 10.5 -0.238281 11.433594 -0.734375 C 12.351562 -1.210938 13.179688 -1.925781 13.875 -2.84375 C 14.539062 -3.6875 15.03125 -4.644531 15.382812 -5.726562 C 15.710938 -6.792969 15.894531 -7.929688 15.894531 -9.105469 C 15.894531 -10.277344 15.710938 -11.417969 15.382812 -12.480469 C 15.03125 -13.546875 14.539062 -14.519531 13.875 -15.382812 Z M 8.5 -3.632812 C 7.984375 -3.632812 7.488281 -3.78125 7.046875 -4.074219 C 6.589844 -4.367188 6.1875 -4.753906 5.855469 -5.25 C 5.507812 -5.746094 5.230469 -6.332031 5.027344 -6.992188 C 4.828125 -7.652344 4.734375 -8.351562 4.734375 -9.105469 C 4.734375 -9.839844 4.828125 -10.554688 5.027344 -11.214844 C 5.230469 -11.875 5.507812 -12.445312 5.855469 -12.957031 C 6.1875 -13.453125 6.589844 -13.859375 7.046875 -14.152344 C 7.488281 -14.445312 7.984375 -14.59375 8.5 -14.59375 C 9.011719 -14.59375 9.488281 -14.445312 9.949219 -14.152344 C 10.390625 -13.859375 10.792969 -13.453125 11.125 -12.957031 C 11.453125 -12.445312 11.730469 -11.875 11.929688 -11.214844 C 12.132812 -10.554688 12.242188 -9.839844 12.242188 -9.105469 C 12.242188 -8.351562 12.132812 -7.652344 11.929688 -6.992188 C 11.730469 -6.332031 11.453125 -5.746094 11.125 -5.25 C 10.792969 -4.753906 10.390625 -4.367188 9.949219 -4.074219 C 9.488281 -3.78125 9.011719 -3.632812 8.5 -3.632812 Z M 8.5 -3.632812 "/></g></g></g><g fill="#ffc1b2" fill-opacity="0.302"><g transform="translate(43.247107, 24.902186)"><g><path d="M 16.574219 -0.515625 C 16.097656 -0.882812 15.710938 -1.320312 15.4375 -1.871094 L 12.058594 -8.316406 C 11.785156 -8.847656 11.785156 -9.378906 12.058594 -9.929688 L 15.4375 -16.371094 C 15.710938 -16.90625 16.097656 -17.363281 16.574219 -17.730469 C 16.703125 -17.839844 16.738281 -17.953125 16.667969 -18.078125 C 16.609375 -18.191406 16.519531 -18.246094 16.410156 -18.246094 L 11.875 -18.246094 C 11.746094 -18.246094 11.65625 -18.191406 11.617188 -18.078125 C 11.5625 -17.96875 11.5625 -17.878906 11.636719 -17.785156 C 11.820312 -17.585938 11.839844 -17.363281 11.730469 -17.125 L 9.417969 -12.703125 C 9.304688 -12.480469 9.121094 -12.390625 8.902344 -12.390625 C 8.664062 -12.390625 8.5 -12.480469 8.386719 -12.703125 L 6.074219 -17.144531 C 6.003906 -17.234375 5.984375 -17.34375 6.003906 -17.472656 C 6.019531 -17.585938 6.074219 -17.695312 6.167969 -17.785156 C 6.242188 -17.878906 6.242188 -17.96875 6.203125 -18.078125 C 6.167969 -18.191406 6.074219 -18.246094 5.964844 -18.246094 L 1.394531 -18.246094 C 1.265625 -18.246094 1.175781 -18.191406 1.136719 -18.078125 C 1.101562 -18.007812 1.082031 -17.953125 1.101562 -17.894531 C 1.121094 -17.824219 1.15625 -17.769531 1.210938 -17.730469 L 1.230469 -17.730469 C 1.707031 -17.363281 2.074219 -16.90625 2.367188 -16.371094 L 5.746094 -9.929688 C 6.003906 -9.378906 6.003906 -8.847656 5.746094 -8.316406 L 2.367188 -1.871094 C 2.074219 -1.320312 1.707031 -0.882812 1.230469 -0.515625 L 1.210938 -0.515625 C 1.15625 -0.457031 1.121094 -0.402344 1.101562 -0.347656 C 1.082031 -0.273438 1.101562 -0.21875 1.136719 -0.164062 C 1.175781 -0.0546875 1.265625 0 1.394531 0 L 5.964844 0 C 6.074219 0 6.167969 -0.0351562 6.203125 -0.148438 C 6.242188 -0.257812 6.242188 -0.347656 6.167969 -0.457031 C 6.074219 -0.53125 6.019531 -0.640625 6.003906 -0.769531 C 5.984375 -0.882812 6.003906 -0.992188 6.074219 -1.101562 L 8.386719 -5.542969 C 8.5 -5.746094 8.664062 -5.855469 8.902344 -5.855469 C 9.121094 -5.855469 9.304688 -5.746094 9.417969 -5.542969 L 11.730469 -1.121094 C 11.839844 -0.863281 11.820312 -0.640625 11.636719 -0.457031 C 11.5625 -0.347656 11.5625 -0.257812 11.617188 -0.148438 C 11.65625 -0.0351562 11.746094 0 11.875 0 L 16.410156 0 C 16.519531 0 16.609375 -0.0546875 16.667969 -0.164062 C 16.738281 -0.273438 16.703125 -0.402344 16.574219 -0.515625 Z M 16.574219 -0.515625 "/></g></g></g><g fill="#ffc1b2" fill-opacity="0.302"><g transform="translate(61.069654, 24.902186)"><g><path d="M 15.015625 -0.457031 L 14.738281 -0.679688 C 14.445312 -0.917969 14.1875 -1.210938 13.988281 -1.542969 L 11.710938 -5.175781 C 11.636719 -5.285156 11.601562 -5.414062 11.636719 -5.5625 C 11.671875 -5.691406 11.746094 -5.800781 11.875 -5.890625 C 12.335938 -6.222656 12.738281 -6.589844 13.070312 -7.011719 C 13.5625 -7.617188 13.949219 -8.316406 14.207031 -9.085938 C 14.464844 -9.855469 14.609375 -10.664062 14.609375 -11.507812 C 14.609375 -12.351562 14.464844 -13.179688 14.207031 -13.949219 C 13.949219 -14.722656 13.5625 -15.417969 13.070312 -16.042969 C 12.480469 -16.738281 11.765625 -17.289062 10.957031 -17.675781 C 10.132812 -18.042969 9.234375 -18.246094 8.277344 -18.246094 L 2.476562 -18.246094 C 2.347656 -18.246094 2.257812 -18.191406 2.222656 -18.078125 C 2.164062 -17.96875 2.183594 -17.878906 2.277344 -17.785156 C 2.570312 -17.457031 2.734375 -17.070312 2.734375 -16.628906 L 2.734375 -1.578125 C 2.734375 -1.15625 2.589844 -0.789062 2.3125 -0.476562 C 2.203125 -0.367188 2.183594 -0.273438 2.238281 -0.164062 C 2.277344 -0.0546875 2.367188 0 2.515625 0 L 6.625 0 C 6.734375 0 6.828125 -0.0351562 6.863281 -0.148438 C 6.902344 -0.257812 6.902344 -0.347656 6.828125 -0.457031 C 6.515625 -0.789062 6.371094 -1.15625 6.371094 -1.597656 L 6.371094 -4.277344 C 6.371094 -4.421875 6.40625 -4.550781 6.515625 -4.664062 C 6.625 -4.773438 6.753906 -4.828125 6.902344 -4.828125 L 7.34375 -4.828125 C 7.527344 -4.828125 7.691406 -4.734375 7.800781 -4.570312 L 10.058594 -0.9375 C 10.148438 -0.769531 10.132812 -0.625 10.023438 -0.476562 L 10.003906 -0.457031 C 9.929688 -0.347656 9.929688 -0.257812 9.984375 -0.148438 C 10.023438 -0.0351562 10.113281 0 10.242188 0 L 14.886719 0 C 15.015625 0 15.085938 -0.0546875 15.125 -0.164062 C 15.160156 -0.273438 15.125 -0.367188 15.015625 -0.457031 Z M 10.261719 -9.324219 C 9.800781 -8.738281 9.140625 -8.460938 8.277344 -8.460938 L 6.902344 -8.460938 C 6.753906 -8.460938 6.625 -8.5 6.515625 -8.609375 C 6.40625 -8.71875 6.371094 -8.847656 6.371094 -8.992188 L 6.371094 -14.058594 C 6.371094 -14.207031 6.40625 -14.335938 6.515625 -14.445312 C 6.625 -14.554688 6.753906 -14.609375 6.902344 -14.609375 L 8.277344 -14.609375 C 8.9375 -14.609375 9.433594 -14.464844 9.800781 -14.171875 C 10.167969 -13.875 10.425781 -13.546875 10.609375 -13.179688 C 10.773438 -12.8125 10.882812 -12.464844 10.921875 -12.132812 C 10.957031 -11.800781 10.976562 -11.582031 10.976562 -11.507812 C 10.976562 -11.066406 10.902344 -10.664062 10.792969 -10.296875 C 10.664062 -9.929688 10.480469 -9.601562 10.261719 -9.324219 Z M 10.261719 -9.324219 "/></g></g></g><g fill="#ffc1b2" fill-opacity="0.302"><g transform="translate(78.414972, 24.902186)"><g><path d="M 16.703125 -0.332031 C 16.703125 -0.402344 16.667969 -0.457031 16.609375 -0.496094 C 16.1875 -0.84375 15.914062 -1.285156 15.765625 -1.835938 L 11.378906 -16.996094 C 11.289062 -17.289062 11.34375 -17.566406 11.5625 -17.785156 C 11.617188 -17.878906 11.617188 -17.96875 11.582031 -18.078125 C 11.527344 -18.191406 11.433594 -18.246094 11.324219 -18.246094 L 6.480469 -18.246094 C 6.371094 -18.246094 6.277344 -18.191406 6.222656 -18.078125 C 6.167969 -17.96875 6.167969 -17.878906 6.242188 -17.785156 C 6.460938 -17.566406 6.515625 -17.289062 6.425781 -16.996094 L 2.054688 -1.816406 C 1.910156 -1.304688 1.617188 -0.863281 1.191406 -0.496094 C 1.136719 -0.441406 1.101562 -0.386719 1.101562 -0.332031 C 1.082031 -0.238281 1.101562 -0.164062 1.15625 -0.0898438 C 1.210938 -0.0195312 1.285156 0 1.394531 0 L 5.652344 0 C 5.761719 0 5.855469 -0.0351562 5.890625 -0.148438 C 5.929688 -0.257812 5.929688 -0.347656 5.855469 -0.441406 C 5.636719 -0.660156 5.578125 -0.9375 5.652344 -1.230469 L 6.222656 -3.140625 C 6.277344 -3.339844 6.386719 -3.503906 6.554688 -3.617188 C 6.699219 -3.726562 6.882812 -3.800781 7.101562 -3.800781 L 10.71875 -3.800781 C 10.921875 -3.800781 11.105469 -3.726562 11.269531 -3.617188 C 11.417969 -3.503906 11.527344 -3.339844 11.601562 -3.140625 L 12.152344 -1.230469 C 12.222656 -0.9375 12.152344 -0.679688 11.96875 -0.457031 L 11.96875 -0.441406 C 11.894531 -0.332031 11.894531 -0.238281 11.949219 -0.148438 C 11.984375 -0.0351562 12.078125 0 12.207031 0 L 16.429688 0 C 16.519531 0 16.59375 -0.0195312 16.648438 -0.0898438 C 16.703125 -0.164062 16.722656 -0.238281 16.703125 -0.332031 Z M 10.09375 -7.433594 L 7.726562 -7.433594 C 7.652344 -7.433594 7.597656 -7.453125 7.5625 -7.507812 C 7.507812 -7.5625 7.488281 -7.636719 7.527344 -7.710938 L 8.71875 -11.800781 C 8.738281 -11.894531 8.792969 -11.949219 8.902344 -11.949219 C 9.011719 -11.949219 9.066406 -11.894531 9.105469 -11.800781 L 10.277344 -7.710938 C 10.296875 -7.636719 10.277344 -7.5625 10.242188 -7.507812 C 10.207031 -7.453125 10.148438 -7.433594 10.09375 -7.433594 Z M 10.09375 -7.433594 "/></g></g></g><g fill="#ffc1b2" fill-opacity="0.302"><g transform="translate(96.237519, 24.902186)"><g><path d="M 14.371094 -18.703125 L 14.355469 -18.683594 C 14.023438 -18.390625 13.65625 -18.246094 13.234375 -18.246094 L 3.800781 -18.246094 C 3.359375 -18.246094 2.992188 -18.390625 2.660156 -18.683594 L 2.660156 -18.703125 C 2.550781 -18.757812 2.460938 -18.757812 2.347656 -18.703125 C 2.238281 -18.648438 2.203125 -18.574219 2.203125 -18.464844 L 2.203125 -14.390625 C 2.203125 -14.261719 2.238281 -14.171875 2.347656 -14.132812 C 2.460938 -14.078125 2.550781 -14.078125 2.660156 -14.152344 C 2.992188 -14.445312 3.359375 -14.609375 3.800781 -14.609375 L 6.332031 -14.609375 C 6.425781 -14.609375 6.515625 -14.574219 6.589844 -14.5 C 6.664062 -14.425781 6.699219 -14.335938 6.699219 -14.242188 L 6.699219 -1.617188 C 6.699219 -1.175781 6.554688 -0.789062 6.257812 -0.476562 L 6.242188 -0.457031 C 6.167969 -0.347656 6.167969 -0.257812 6.222656 -0.148438 C 6.257812 -0.0351562 6.351562 0 6.480469 0 L 10.554688 0 C 10.664062 0 10.738281 -0.0351562 10.792969 -0.148438 C 10.847656 -0.257812 10.847656 -0.347656 10.792969 -0.457031 C 10.480469 -0.789062 10.332031 -1.15625 10.332031 -1.597656 L 10.332031 -14.242188 C 10.332031 -14.335938 10.371094 -14.425781 10.445312 -14.5 C 10.515625 -14.574219 10.589844 -14.609375 10.699219 -14.609375 L 13.234375 -14.609375 C 13.675781 -14.609375 14.042969 -14.445312 14.355469 -14.152344 L 14.371094 -14.152344 C 14.464844 -14.078125 14.554688 -14.078125 14.664062 -14.132812 C 14.777344 -14.171875 14.832031 -14.261719 14.832031 -14.390625 L 14.832031 -18.464844 C 14.832031 -18.574219 14.777344 -18.648438 14.664062 -18.703125 C 14.554688 -18.757812 14.464844 -18.757812 14.371094 -18.703125 Z M 14.371094 -18.703125 "/></g></g></g><g fill="#ffc1b2" fill-opacity="0.302"><g transform="translate(113.270805, 24.902186)"><g><path d="M 15.949219 -0.457031 L 15.914062 -0.476562 C 15.621094 -0.789062 15.492188 -1.15625 15.492188 -1.597656 L 15.492188 -16.648438 C 15.492188 -17.070312 15.621094 -17.4375 15.914062 -17.769531 L 15.949219 -17.785156 C 16.003906 -17.878906 16.003906 -17.96875 15.949219 -18.078125 C 15.894531 -18.191406 15.820312 -18.246094 15.710938 -18.246094 L 11.636719 -18.246094 C 11.527344 -18.246094 11.433594 -18.191406 11.378906 -18.078125 C 11.324219 -17.96875 11.324219 -17.878906 11.398438 -17.785156 L 11.417969 -17.785156 C 11.710938 -17.457031 11.855469 -17.070312 11.855469 -16.667969 L 11.855469 -11.546875 C 11.855469 -11.363281 11.785156 -11.214844 11.671875 -11.105469 C 11.546875 -10.996094 11.398438 -10.941406 11.234375 -10.941406 L 6.976562 -10.941406 C 6.792969 -10.941406 6.644531 -10.996094 6.535156 -11.105469 C 6.40625 -11.214844 6.351562 -11.363281 6.351562 -11.546875 L 6.351562 -16.683594 C 6.351562 -17.089844 6.496094 -17.457031 6.792969 -17.785156 C 6.847656 -17.878906 6.847656 -17.96875 6.808594 -18.078125 C 6.753906 -18.191406 6.664062 -18.246094 6.554688 -18.246094 L 2.496094 -18.246094 C 2.367188 -18.246094 2.277344 -18.191406 2.238281 -18.078125 C 2.183594 -17.96875 2.183594 -17.878906 2.257812 -17.785156 L 2.292969 -17.75 C 2.570312 -17.4375 2.714844 -17.070312 2.714844 -16.648438 L 2.714844 -1.617188 C 2.714844 -1.175781 2.570312 -0.789062 2.292969 -0.496094 L 2.257812 -0.457031 C 2.183594 -0.347656 2.183594 -0.257812 2.238281 -0.148438 C 2.277344 -0.0351562 2.367188 0 2.496094 0 L 6.554688 0 C 6.664062 0 6.753906 -0.0351562 6.808594 -0.148438 C 6.847656 -0.257812 6.847656 -0.347656 6.792969 -0.457031 C 6.496094 -0.789062 6.351562 -1.15625 6.351562 -1.578125 L 6.351562 -6.699219 C 6.351562 -6.863281 6.40625 -7.011719 6.535156 -7.121094 C 6.644531 -7.230469 6.792969 -7.304688 6.976562 -7.304688 L 11.234375 -7.304688 C 11.398438 -7.304688 11.546875 -7.230469 11.671875 -7.121094 C 11.785156 -7.011719 11.855469 -6.863281 11.855469 -6.699219 L 11.855469 -1.578125 C 11.855469 -1.15625 11.710938 -0.789062 11.417969 -0.476562 L 11.398438 -0.457031 C 11.324219 -0.347656 11.324219 -0.257812 11.378906 -0.148438 C 11.433594 -0.0351562 11.527344 0 11.636719 0 L 15.710938 0 C 15.820312 0 15.894531 -0.0351562 15.949219 -0.148438 C 16.003906 -0.257812 16.003906 -0.347656 15.949219 -0.457031 Z M 15.949219 -0.457031 "/></g></g></g><g fill="#ffc1b2" fill-opacity="0.302"><g transform="translate(131.478808, 24.902186)"><g><path d="M 13.875 -15.382812 C 13.179688 -16.300781 12.351562 -16.996094 11.433594 -17.492188 C 10.5 -17.96875 9.527344 -18.226562 8.5 -18.226562 C 7.46875 -18.226562 6.480469 -17.96875 5.542969 -17.492188 C 4.605469 -16.996094 3.800781 -16.300781 3.101562 -15.382812 C 2.441406 -14.519531 1.945312 -13.546875 1.617188 -12.480469 C 1.265625 -11.417969 1.101562 -10.277344 1.101562 -9.105469 C 1.101562 -7.929688 1.265625 -6.792969 1.617188 -5.726562 C 1.945312 -4.644531 2.441406 -3.6875 3.101562 -2.84375 C 3.800781 -1.925781 4.605469 -1.210938 5.542969 -0.734375 C 6.480469 -0.238281 7.46875 0 8.5 0 C 9.527344 0 10.5 -0.238281 11.433594 -0.734375 C 12.351562 -1.210938 13.179688 -1.925781 13.875 -2.84375 C 14.539062 -3.6875 15.03125 -4.644531 15.382812 -5.726562 C 15.710938 -6.792969 15.894531 -7.929688 15.894531 -9.105469 C 15.894531 -10.277344 15.710938 -11.417969 15.382812 -12.480469 C 15.03125 -13.546875 14.539062 -14.519531 13.875 -15.382812 Z M 8.5 -3.632812 C 7.984375 -3.632812 7.488281 -3.78125 7.046875 -4.074219 C 6.589844 -4.367188 6.1875 -4.753906 5.855469 -5.25 C 5.507812 -5.746094 5.230469 -6.332031 5.027344 -6.992188 C 4.828125 -7.652344 4.734375 -8.351562 4.734375 -9.105469 C 4.734375 -9.839844 4.828125 -10.554688 5.027344 -11.214844 C 5.230469 -11.875 5.507812 -12.445312 5.855469 -12.957031 C 6.1875 -13.453125 6.589844 -13.859375 7.046875 -14.152344 C 7.488281 -14.445312 7.984375 -14.59375 8.5 -14.59375 C 9.011719 -14.59375 9.488281 -14.445312 9.949219 -14.152344 C 10.390625 -13.859375 10.792969 -13.453125 11.125 -12.957031 C 11.453125 -12.445312 11.730469 -11.875 11.929688 -11.214844 C 12.132812 -10.554688 12.242188 -9.839844 12.242188 -9.105469 C 12.242188 -8.351562 12.132812 -7.652344 11.929688 -6.992188 C 11.730469 -6.332031 11.453125 -5.746094 11.125 -5.25 C 10.792969 -4.753906 10.390625 -4.367188 9.949219 -4.074219 C 9.488281 -3.78125 9.011719 -3.632812 8.5 -3.632812 Z M 8.5 -3.632812 "/></g></g></g><g fill="#ffc1b2" fill-opacity="0.302"><g transform="translate(148.475386, 24.902186)"><g><path d="M 15.015625 -0.457031 L 14.738281 -0.679688 C 14.445312 -0.917969 14.1875 -1.210938 13.988281 -1.542969 L 11.710938 -5.175781 C 11.636719 -5.285156 11.601562 -5.414062 11.636719 -5.5625 C 11.671875 -5.691406 11.746094 -5.800781 11.875 -5.890625 C 12.335938 -6.222656 12.738281 -6.589844 13.070312 -7.011719 C 13.5625 -7.617188 13.949219 -8.316406 14.207031 -9.085938 C 14.464844 -9.855469 14.609375 -10.664062 14.609375 -11.507812 C 14.609375 -12.351562 14.464844 -13.179688 14.207031 -13.949219 C 13.949219 -14.722656 13.5625 -15.417969 13.070312 -16.042969 C 12.480469 -16.738281 11.765625 -17.289062 10.957031 -17.675781 C 10.132812 -18.042969 9.234375 -18.246094 8.277344 -18.246094 L 2.476562 -18.246094 C 2.347656 -18.246094 2.257812 -18.191406 2.222656 -18.078125 C 2.164062 -17.96875 2.183594 -17.878906 2.277344 -17.785156 C 2.570312 -17.457031 2.734375 -17.070312 2.734375 -16.628906 L 2.734375 -1.578125 C 2.734375 -1.15625 2.589844 -0.789062 2.3125 -0.476562 C 2.203125 -0.367188 2.183594 -0.273438 2.238281 -0.164062 C 2.277344 -0.0546875 2.367188 0 2.515625 0 L 6.625 0 C 6.734375 0 6.828125 -0.0351562 6.863281 -0.148438 C 6.902344 -0.257812 6.902344 -0.347656 6.828125 -0.457031 C 6.515625 -0.789062 6.371094 -1.15625 6.371094 -1.597656 L 6.371094 -4.277344 C 6.371094 -4.421875 6.40625 -4.550781 6.515625 -4.664062 C 6.625 -4.773438 6.753906 -4.828125 6.902344 -4.828125 L 7.34375 -4.828125 C 7.527344 -4.828125 7.691406 -4.734375 7.800781 -4.570312 L 10.058594 -0.9375 C 10.148438 -0.769531 10.132812 -0.625 10.023438 -0.476562 L 10.003906 -0.457031 C 9.929688 -0.347656 9.929688 -0.257812 9.984375 -0.148438 C 10.023438 -0.0351562 10.113281 0 10.242188 0 L 14.886719 0 C 15.015625 0 15.085938 -0.0546875 15.125 -0.164062 C 15.160156 -0.273438 15.125 -0.367188 15.015625 -0.457031 Z M 10.261719 -9.324219 C 9.800781 -8.738281 9.140625 -8.460938 8.277344 -8.460938 L 6.902344 -8.460938 C 6.753906 -8.460938 6.625 -8.5 6.515625 -8.609375 C 6.40625 -8.71875 6.371094 -8.847656 6.371094 -8.992188 L 6.371094 -14.058594 C 6.371094 -14.207031 6.40625 -14.335938 6.515625 -14.445312 C 6.625 -14.554688 6.753906 -14.609375 6.902344 -14.609375 L 8.277344 -14.609375 C 8.9375 -14.609375 9.433594 -14.464844 9.800781 -14.171875 C 10.167969 -13.875 10.425781 -13.546875 10.609375 -13.179688 C 10.773438 -12.8125 10.882812 -12.464844 10.921875 -12.132812 C 10.957031 -11.800781 10.976562 -11.582031 10.976562 -11.507812 C 10.976562 -11.066406 10.902344 -10.664062 10.792969 -10.296875 C 10.664062 -9.929688 10.480469 -9.601562 10.261719 -9.324219 Z M 10.261719 -9.324219 "/></g></g></g><g fill="#ffc1b2" fill-opacity="0.302"><g transform="translate(165.820705, 24.902186)"><g><path d="M 13.363281 -18.375 C 13.050781 -18.078125 12.683594 -17.953125 12.28125 -17.953125 L 2.496094 -17.953125 C 2.367188 -17.953125 2.277344 -17.894531 2.238281 -17.785156 C 2.183594 -17.675781 2.183594 -17.585938 2.257812 -17.492188 L 2.3125 -17.4375 C 2.605469 -17.105469 2.753906 -16.722656 2.753906 -16.28125 L 2.753906 -1.375 C 2.753906 -1.15625 2.714844 -0.953125 2.644531 -0.753906 C 2.570312 -0.550781 2.460938 -0.367188 2.3125 -0.21875 L 2.257812 -0.164062 C 2.183594 -0.0546875 2.183594 0.0351562 2.238281 0.148438 C 2.277344 0.257812 2.367188 0.292969 2.496094 0.292969 L 12.28125 0.292969 C 12.683594 0.292969 13.050781 0.441406 13.363281 0.714844 C 13.453125 0.808594 13.5625 0.824219 13.675781 0.769531 C 13.785156 0.734375 13.859375 0.640625 13.859375 0.496094 L 13.859375 -3.597656 C 13.859375 -3.707031 13.804688 -3.800781 13.691406 -3.855469 C 13.582031 -3.890625 13.472656 -3.871094 13.398438 -3.800781 C 13.070312 -3.488281 12.683594 -3.339844 12.242188 -3.339844 L 6.847656 -3.339844 C 6.71875 -3.339844 6.609375 -3.378906 6.515625 -3.46875 C 6.425781 -3.542969 6.386719 -3.652344 6.386719 -3.800781 L 6.386719 -6.554688 C 6.386719 -6.679688 6.425781 -6.792969 6.515625 -6.882812 C 6.609375 -6.957031 6.71875 -7.011719 6.847656 -7.011719 L 8.460938 -7.011719 C 8.902344 -7.011719 9.289062 -6.847656 9.617188 -6.554688 C 9.710938 -6.480469 9.800781 -6.480469 9.910156 -6.535156 C 10.023438 -6.589844 10.078125 -6.679688 10.078125 -6.792969 L 10.078125 -10.867188 C 10.078125 -10.976562 10.023438 -11.050781 9.910156 -11.105469 C 9.800781 -11.160156 9.710938 -11.160156 9.617188 -11.105469 C 9.289062 -10.792969 8.902344 -10.644531 8.460938 -10.644531 L 6.847656 -10.644531 C 6.71875 -10.644531 6.609375 -10.683594 6.515625 -10.773438 C 6.425781 -10.847656 6.386719 -10.957031 6.386719 -11.105469 L 6.386719 -13.859375 C 6.386719 -13.988281 6.425781 -14.097656 6.515625 -14.1875 C 6.609375 -14.261719 6.71875 -14.316406 6.847656 -14.316406 L 12.242188 -14.316406 C 12.683594 -14.316406 13.070312 -14.152344 13.398438 -13.859375 C 13.472656 -13.765625 13.582031 -13.746094 13.691406 -13.804688 C 13.804688 -13.839844 13.859375 -13.929688 13.859375 -14.058594 L 13.859375 -18.171875 C 13.859375 -18.28125 13.785156 -18.375 13.675781 -18.429688 C 13.5625 -18.464844 13.453125 -18.445312 13.363281 -18.375 Z M 13.363281 -18.375 "/></g></g></g><g fill="#ffc1b2" fill-opacity="0.502"><g transform="translate(4.159864, 25.108391)"><g><path d="M 19.878906 -1.542969 L 19.878906 -16.703125 C 19.878906 -17.105469 20.007812 -17.472656 20.300781 -17.785156 C 20.375 -17.878906 20.390625 -17.96875 20.355469 -18.078125 C 20.300781 -18.191406 20.226562 -18.246094 20.117188 -18.246094 L 16.246094 -18.246094 L 16.226562 -18.226562 L 16.226562 -18.246094 L 15.730469 -18.246094 C 15.601562 -18.246094 15.511719 -18.191406 15.472656 -18.078125 C 15.417969 -17.96875 15.417969 -17.878906 15.492188 -17.785156 C 15.566406 -17.675781 15.546875 -17.601562 15.472656 -17.546875 L 11.691406 -14.058594 C 11.5625 -13.949219 11.417969 -13.914062 11.269531 -13.914062 C 11.125 -13.914062 10.996094 -13.949219 10.882812 -14.058594 L 7.046875 -17.585938 C 6.976562 -17.640625 6.976562 -17.695312 7.046875 -17.769531 C 7.121094 -17.859375 7.140625 -17.96875 7.101562 -18.078125 C 7.046875 -18.191406 6.957031 -18.246094 6.828125 -18.246094 L 2.496094 -18.246094 C 2.367188 -18.246094 2.277344 -18.191406 2.238281 -18.078125 C 2.183594 -17.96875 2.183594 -17.878906 2.257812 -17.785156 L 2.277344 -17.769531 C 2.550781 -17.457031 2.699219 -17.089844 2.699219 -16.683594 L 2.699219 -1.558594 C 2.699219 -1.136719 2.550781 -0.769531 2.277344 -0.476562 L 2.257812 -0.457031 C 2.183594 -0.347656 2.183594 -0.257812 2.238281 -0.148438 C 2.277344 -0.0351562 2.367188 0 2.496094 0 L 6.554688 0 C 6.664062 0 6.753906 -0.0351562 6.808594 -0.148438 C 6.847656 -0.257812 6.847656 -0.347656 6.792969 -0.457031 L 6.753906 -0.496094 C 6.460938 -0.789062 6.332031 -1.15625 6.332031 -1.578125 L 6.332031 -12.703125 C 6.332031 -12.8125 6.371094 -12.886719 6.480469 -12.921875 C 6.589844 -12.957031 6.679688 -12.957031 6.773438 -12.886719 L 10.882812 -9.066406 C 10.996094 -8.957031 11.125 -8.902344 11.289062 -8.902344 C 11.433594 -8.902344 11.582031 -8.957031 11.691406 -9.066406 L 15.804688 -12.886719 C 15.878906 -12.957031 15.96875 -12.957031 16.078125 -12.921875 C 16.1875 -12.886719 16.246094 -12.8125 16.246094 -12.703125 L 16.246094 -1.597656 C 16.246094 -1.191406 16.097656 -0.824219 15.804688 -0.515625 L 15.765625 -0.457031 C 15.695312 -0.347656 15.695312 -0.257812 15.75 -0.148438 C 15.785156 -0.0351562 15.878906 0 16.003906 0 L 20.117188 0 C 20.226562 0 20.300781 -0.0351562 20.355469 -0.148438 C 20.390625 -0.257812 20.375 -0.347656 20.300781 -0.457031 C 20.007812 -0.753906 19.878906 -1.121094 19.878906 -1.542969 Z M 19.878906 -1.542969 "/></g></g></g><g fill="#ffc1b2" fill-opacity="0.502"><g transform="translate(26.736315, 25.108391)"><g><path d="M 13.875 -15.382812 C 13.179688 -16.300781 12.351562 -16.996094 11.433594 -17.492188 C 10.5 -17.96875 9.527344 -18.226562 8.5 -18.226562 C 7.46875 -18.226562 6.480469 -17.96875 5.542969 -17.492188 C 4.605469 -16.996094 3.800781 -16.300781 3.101562 -15.382812 C 2.441406 -14.519531 1.945312 -13.546875 1.617188 -12.480469 C 1.265625 -11.417969 1.101562 -10.277344 1.101562 -9.105469 C 1.101562 -7.929688 1.265625 -6.792969 1.617188 -5.726562 C 1.945312 -4.644531 2.441406 -3.6875 3.101562 -2.84375 C 3.800781 -1.925781 4.605469 -1.210938 5.542969 -0.734375 C 6.480469 -0.238281 7.46875 0 8.5 0 C 9.527344 0 10.5 -0.238281 11.433594 -0.734375 C 12.351562 -1.210938 13.179688 -1.925781 13.875 -2.84375 C 14.539062 -3.6875 15.03125 -4.644531 15.382812 -5.726562 C 15.710938 -6.792969 15.894531 -7.929688 15.894531 -9.105469 C 15.894531 -10.277344 15.710938 -11.417969 15.382812 -12.480469 C 15.03125 -13.546875 14.539062 -14.519531 13.875 -15.382812 Z M 8.5 -3.632812 C 7.984375 -3.632812 7.488281 -3.78125 7.046875 -4.074219 C 6.589844 -4.367188 6.1875 -4.753906 5.855469 -5.25 C 5.507812 -5.746094 5.230469 -6.332031 5.027344 -6.992188 C 4.828125 -7.652344 4.734375 -8.351562 4.734375 -9.105469 C 4.734375 -9.839844 4.828125 -10.554688 5.027344 -11.214844 C 5.230469 -11.875 5.507812 -12.445312 5.855469 -12.957031 C 6.1875 -13.453125 6.589844 -13.859375 7.046875 -14.152344 C 7.488281 -14.445312 7.984375 -14.59375 8.5 -14.59375 C 9.011719 -14.59375 9.488281 -14.445312 9.949219 -14.152344 C 10.390625 -13.859375 10.792969 -13.453125 11.125 -12.957031 C 11.453125 -12.445312 11.730469 -11.875 11.929688 -11.214844 C 12.132812 -10.554688 12.242188 -9.839844 12.242188 -9.105469 C 12.242188 -8.351562 12.132812 -7.652344 11.929688 -6.992188 C 11.730469 -6.332031 11.453125 -5.746094 11.125 -5.25 C 10.792969 -4.753906 10.390625 -4.367188 9.949219 -4.074219 C 9.488281 -3.78125 9.011719 -3.632812 8.5 -3.632812 Z M 8.5 -3.632812 "/></g></g></g><g fill="#ffc1b2" fill-opacity="0.502"><g transform="translate(43.732893, 25.108391)"><g><path d="M 16.574219 -0.515625 C 16.097656 -0.882812 15.710938 -1.320312 15.4375 -1.871094 L 12.058594 -8.316406 C 11.785156 -8.847656 11.785156 -9.378906 12.058594 -9.929688 L 15.4375 -16.371094 C 15.710938 -16.90625 16.097656 -17.363281 16.574219 -17.730469 C 16.703125 -17.839844 16.738281 -17.953125 16.667969 -18.078125 C 16.609375 -18.191406 16.519531 -18.246094 16.410156 -18.246094 L 11.875 -18.246094 C 11.746094 -18.246094 11.65625 -18.191406 11.617188 -18.078125 C 11.5625 -17.96875 11.5625 -17.878906 11.636719 -17.785156 C 11.820312 -17.585938 11.839844 -17.363281 11.730469 -17.125 L 9.417969 -12.703125 C 9.304688 -12.480469 9.121094 -12.390625 8.902344 -12.390625 C 8.664062 -12.390625 8.5 -12.480469 8.386719 -12.703125 L 6.074219 -17.144531 C 6.003906 -17.234375 5.984375 -17.34375 6.003906 -17.472656 C 6.019531 -17.585938 6.074219 -17.695312 6.167969 -17.785156 C 6.242188 -17.878906 6.242188 -17.96875 6.203125 -18.078125 C 6.167969 -18.191406 6.074219 -18.246094 5.964844 -18.246094 L 1.394531 -18.246094 C 1.265625 -18.246094 1.175781 -18.191406 1.136719 -18.078125 C 1.101562 -18.007812 1.082031 -17.953125 1.101562 -17.894531 C 1.121094 -17.824219 1.15625 -17.769531 1.210938 -17.730469 L 1.230469 -17.730469 C 1.707031 -17.363281 2.074219 -16.90625 2.367188 -16.371094 L 5.746094 -9.929688 C 6.003906 -9.378906 6.003906 -8.847656 5.746094 -8.316406 L 2.367188 -1.871094 C 2.074219 -1.320312 1.707031 -0.882812 1.230469 -0.515625 L 1.210938 -0.515625 C 1.15625 -0.457031 1.121094 -0.402344 1.101562 -0.347656 C 1.082031 -0.273438 1.101562 -0.21875 1.136719 -0.164062 C 1.175781 -0.0546875 1.265625 0 1.394531 0 L 5.964844 0 C 6.074219 0 6.167969 -0.0351562 6.203125 -0.148438 C 6.242188 -0.257812 6.242188 -0.347656 6.167969 -0.457031 C 6.074219 -0.53125 6.019531 -0.640625 6.003906 -0.769531 C 5.984375 -0.882812 6.003906 -0.992188 6.074219 -1.101562 L 8.386719 -5.542969 C 8.5 -5.746094 8.664062 -5.855469 8.902344 -5.855469 C 9.121094 -5.855469 9.304688 -5.746094 9.417969 -5.542969 L 11.730469 -1.121094 C 11.839844 -0.863281 11.820312 -0.640625 11.636719 -0.457031 C 11.5625 -0.347656 11.5625 -0.257812 11.617188 -0.148438 C 11.65625 -0.0351562 11.746094 0 11.875 0 L 16.410156 0 C 16.519531 0 16.609375 -0.0546875 16.667969 -0.164062 C 16.738281 -0.273438 16.703125 -0.402344 16.574219 -0.515625 Z M 16.574219 -0.515625 "/></g></g></g><g fill="#ffc1b2" fill-opacity="0.502"><g transform="translate(61.55544, 25.108391)"><g><path d="M 15.015625 -0.457031 L 14.738281 -0.679688 C 14.445312 -0.917969 14.1875 -1.210938 13.988281 -1.542969 L 11.710938 -5.175781 C 11.636719 -5.285156 11.601562 -5.414062 11.636719 -5.5625 C 11.671875 -5.691406 11.746094 -5.800781 11.875 -5.890625 C 12.335938 -6.222656 12.738281 -6.589844 13.070312 -7.011719 C 13.5625 -7.617188 13.949219 -8.316406 14.207031 -9.085938 C 14.464844 -9.855469 14.609375 -10.664062 14.609375 -11.507812 C 14.609375 -12.351562 14.464844 -13.179688 14.207031 -13.949219 C 13.949219 -14.722656 13.5625 -15.417969 13.070312 -16.042969 C 12.480469 -16.738281 11.765625 -17.289062 10.957031 -17.675781 C 10.132812 -18.042969 9.234375 -18.246094 8.277344 -18.246094 L 2.476562 -18.246094 C 2.347656 -18.246094 2.257812 -18.191406 2.222656 -18.078125 C 2.164062 -17.96875 2.183594 -17.878906 2.277344 -17.785156 C 2.570312 -17.457031 2.734375 -17.070312 2.734375 -16.628906 L 2.734375 -1.578125 C 2.734375 -1.15625 2.589844 -0.789062 2.3125 -0.476562 C 2.203125 -0.367188 2.183594 -0.273438 2.238281 -0.164062 C 2.277344 -0.0546875 2.367188 0 2.515625 0 L 6.625 0 C 6.734375 0 6.828125 -0.0351562 6.863281 -0.148438 C 6.902344 -0.257812 6.902344 -0.347656 6.828125 -0.457031 C 6.515625 -0.789062 6.371094 -1.15625 6.371094 -1.597656 L 6.371094 -4.277344 C 6.371094 -4.421875 6.40625 -4.550781 6.515625 -4.664062 C 6.625 -4.773438 6.753906 -4.828125 6.902344 -4.828125 L 7.34375 -4.828125 C 7.527344 -4.828125 7.691406 -4.734375 7.800781 -4.570312 L 10.058594 -0.9375 C 10.148438 -0.769531 10.132812 -0.625 10.023438 -0.476562 L 10.003906 -0.457031 C 9.929688 -0.347656 9.929688 -0.257812 9.984375 -0.148438 C 10.023438 -0.0351562 10.113281 0 10.242188 0 L 14.886719 0 C 15.015625 0 15.085938 -0.0546875 15.125 -0.164062 C 15.160156 -0.273438 15.125 -0.367188 15.015625 -0.457031 Z M 10.261719 -9.324219 C 9.800781 -8.738281 9.140625 -8.460938 8.277344 -8.460938 L 6.902344 -8.460938 C 6.753906 -8.460938 6.625 -8.5 6.515625 -8.609375 C 6.40625 -8.71875 6.371094 -8.847656 6.371094 -8.992188 L 6.371094 -14.058594 C 6.371094 -14.207031 6.40625 -14.335938 6.515625 -14.445312 C 6.625 -14.554688 6.753906 -14.609375 6.902344 -14.609375 L 8.277344 -14.609375 C 8.9375 -14.609375 9.433594 -14.464844 9.800781 -14.171875 C 10.167969 -13.875 10.425781 -13.546875 10.609375 -13.179688 C 10.773438 -12.8125 10.882812 -12.464844 10.921875 -12.132812 C 10.957031 -11.800781 10.976562 -11.582031 10.976562 -11.507812 C 10.976562 -11.066406 10.902344 -10.664062 10.792969 -10.296875 C 10.664062 -9.929688 10.480469 -9.601562 10.261719 -9.324219 Z M 10.261719 -9.324219 "/></g></g></g><g fill="#ffc1b2" fill-opacity="0.502"><g transform="translate(78.900759, 25.108391)"><g><path d="M 16.703125 -0.332031 C 16.703125 -0.402344 16.667969 -0.457031 16.609375 -0.496094 C 16.1875 -0.84375 15.914062 -1.285156 15.765625 -1.835938 L 11.378906 -16.996094 C 11.289062 -17.289062 11.34375 -17.566406 11.5625 -17.785156 C 11.617188 -17.878906 11.617188 -17.96875 11.582031 -18.078125 C 11.527344 -18.191406 11.433594 -18.246094 11.324219 -18.246094 L 6.480469 -18.246094 C 6.371094 -18.246094 6.277344 -18.191406 6.222656 -18.078125 C 6.167969 -17.96875 6.167969 -17.878906 6.242188 -17.785156 C 6.460938 -17.566406 6.515625 -17.289062 6.425781 -16.996094 L 2.054688 -1.816406 C 1.910156 -1.304688 1.617188 -0.863281 1.191406 -0.496094 C 1.136719 -0.441406 1.101562 -0.386719 1.101562 -0.332031 C 1.082031 -0.238281 1.101562 -0.164062 1.15625 -0.0898438 C 1.210938 -0.0195312 1.285156 0 1.394531 0 L 5.652344 0 C 5.761719 0 5.855469 -0.0351562 5.890625 -0.148438 C 5.929688 -0.257812 5.929688 -0.347656 5.855469 -0.441406 C 5.636719 -0.660156 5.578125 -0.9375 5.652344 -1.230469 L 6.222656 -3.140625 C 6.277344 -3.339844 6.386719 -3.503906 6.554688 -3.617188 C 6.699219 -3.726562 6.882812 -3.800781 7.101562 -3.800781 L 10.71875 -3.800781 C 10.921875 -3.800781 11.105469 -3.726562 11.269531 -3.617188 C 11.417969 -3.503906 11.527344 -3.339844 11.601562 -3.140625 L 12.152344 -1.230469 C 12.222656 -0.9375 12.152344 -0.679688 11.96875 -0.457031 L 11.96875 -0.441406 C 11.894531 -0.332031 11.894531 -0.238281 11.949219 -0.148438 C 11.984375 -0.0351562 12.078125 0 12.207031 0 L 16.429688 0 C 16.519531 0 16.59375 -0.0195312 16.648438 -0.0898438 C 16.703125 -0.164062 16.722656 -0.238281 16.703125 -0.332031 Z M 10.09375 -7.433594 L 7.726562 -7.433594 C 7.652344 -7.433594 7.597656 -7.453125 7.5625 -7.507812 C 7.507812 -7.5625 7.488281 -7.636719 7.527344 -7.710938 L 8.71875 -11.800781 C 8.738281 -11.894531 8.792969 -11.949219 8.902344 -11.949219 C 9.011719 -11.949219 9.066406 -11.894531 9.105469 -11.800781 L 10.277344 -7.710938 C 10.296875 -7.636719 10.277344 -7.5625 10.242188 -7.507812 C 10.207031 -7.453125 10.148438 -7.433594 10.09375 -7.433594 Z M 10.09375 -7.433594 "/></g></g></g><g fill="#ffc1b2" fill-opacity="0.502"><g transform="translate(96.723306, 25.108391)"><g><path d="M 14.371094 -18.703125 L 14.355469 -18.683594 C 14.023438 -18.390625 13.65625 -18.246094 13.234375 -18.246094 L 3.800781 -18.246094 C 3.359375 -18.246094 2.992188 -18.390625 2.660156 -18.683594 L 2.660156 -18.703125 C 2.550781 -18.757812 2.460938 -18.757812 2.347656 -18.703125 C 2.238281 -18.648438 2.203125 -18.574219 2.203125 -18.464844 L 2.203125 -14.390625 C 2.203125 -14.261719 2.238281 -14.171875 2.347656 -14.132812 C 2.460938 -14.078125 2.550781 -14.078125 2.660156 -14.152344 C 2.992188 -14.445312 3.359375 -14.609375 3.800781 -14.609375 L 6.332031 -14.609375 C 6.425781 -14.609375 6.515625 -14.574219 6.589844 -14.5 C 6.664062 -14.425781 6.699219 -14.335938 6.699219 -14.242188 L 6.699219 -1.617188 C 6.699219 -1.175781 6.554688 -0.789062 6.257812 -0.476562 L 6.242188 -0.457031 C 6.167969 -0.347656 6.167969 -0.257812 6.222656 -0.148438 C 6.257812 -0.0351562 6.351562 0 6.480469 0 L 10.554688 0 C 10.664062 0 10.738281 -0.0351562 10.792969 -0.148438 C 10.847656 -0.257812 10.847656 -0.347656 10.792969 -0.457031 C 10.480469 -0.789062 10.332031 -1.15625 10.332031 -1.597656 L 10.332031 -14.242188 C 10.332031 -14.335938 10.371094 -14.425781 10.445312 -14.5 C 10.515625 -14.574219 10.589844 -14.609375 10.699219 -14.609375 L 13.234375 -14.609375 C 13.675781 -14.609375 14.042969 -14.445312 14.355469 -14.152344 L 14.371094 -14.152344 C 14.464844 -14.078125 14.554688 -14.078125 14.664062 -14.132812 C 14.777344 -14.171875 14.832031 -14.261719 14.832031 -14.390625 L 14.832031 -18.464844 C 14.832031 -18.574219 14.777344 -18.648438 14.664062 -18.703125 C 14.554688 -18.757812 14.464844 -18.757812 14.371094 -18.703125 Z M 14.371094 -18.703125 "/></g></g></g><g fill="#ffc1b2" fill-opacity="0.502"><g transform="translate(113.756591, 25.108391)"><g><path d="M 15.949219 -0.457031 L 15.914062 -0.476562 C 15.621094 -0.789062 15.492188 -1.15625 15.492188 -1.597656 L 15.492188 -16.648438 C 15.492188 -17.070312 15.621094 -17.4375 15.914062 -17.769531 L 15.949219 -17.785156 C 16.003906 -17.878906 16.003906 -17.96875 15.949219 -18.078125 C 15.894531 -18.191406 15.820312 -18.246094 15.710938 -18.246094 L 11.636719 -18.246094 C 11.527344 -18.246094 11.433594 -18.191406 11.378906 -18.078125 C 11.324219 -17.96875 11.324219 -17.878906 11.398438 -17.785156 L 11.417969 -17.785156 C 11.710938 -17.457031 11.855469 -17.070312 11.855469 -16.667969 L 11.855469 -11.546875 C 11.855469 -11.363281 11.785156 -11.214844 11.671875 -11.105469 C 11.546875 -10.996094 11.398438 -10.941406 11.234375 -10.941406 L 6.976562 -10.941406 C 6.792969 -10.941406 6.644531 -10.996094 6.535156 -11.105469 C 6.40625 -11.214844 6.351562 -11.363281 6.351562 -11.546875 L 6.351562 -16.683594 C 6.351562 -17.089844 6.496094 -17.457031 6.792969 -17.785156 C 6.847656 -17.878906 6.847656 -17.96875 6.808594 -18.078125 C 6.753906 -18.191406 6.664062 -18.246094 6.554688 -18.246094 L 2.496094 -18.246094 C 2.367188 -18.246094 2.277344 -18.191406 2.238281 -18.078125 C 2.183594 -17.96875 2.183594 -17.878906 2.257812 -17.785156 L 2.292969 -17.75 C 2.570312 -17.4375 2.714844 -17.070312 2.714844 -16.648438 L 2.714844 -1.617188 C 2.714844 -1.175781 2.570312 -0.789062 2.292969 -0.496094 L 2.257812 -0.457031 C 2.183594 -0.347656 2.183594 -0.257812 2.238281 -0.148438 C 2.277344 -0.0351562 2.367188 0 2.496094 0 L 6.554688 0 C 6.664062 0 6.753906 -0.0351562 6.808594 -0.148438 C 6.847656 -0.257812 6.847656 -0.347656 6.792969 -0.457031 C 6.496094 -0.789062 6.351562 -1.15625 6.351562 -1.578125 L 6.351562 -6.699219 C 6.351562 -6.863281 6.40625 -7.011719 6.535156 -7.121094 C 6.644531 -7.230469 6.792969 -7.304688 6.976562 -7.304688 L 11.234375 -7.304688 C 11.398438 -7.304688 11.546875 -7.230469 11.671875 -7.121094 C 11.785156 -7.011719 11.855469 -6.863281 11.855469 -6.699219 L 11.855469 -1.578125 C 11.855469 -1.15625 11.710938 -0.789062 11.417969 -0.476562 L 11.398438 -0.457031 C 11.324219 -0.347656 11.324219 -0.257812 11.378906 -0.148438 C 11.433594 -0.0351562 11.527344 0 11.636719 0 L 15.710938 0 C 15.820312 0 15.894531 -0.0351562 15.949219 -0.148438 C 16.003906 -0.257812 16.003906 -0.347656 15.949219 -0.457031 Z M 15.949219 -0.457031 "/></g></g></g><g fill="#ffc1b2" fill-opacity="0.502"><g transform="translate(131.964595, 25.108391)"><g><path d="M 13.875 -15.382812 C 13.179688 -16.300781 12.351562 -16.996094 11.433594 -17.492188 C 10.5 -17.96875 9.527344 -18.226562 8.5 -18.226562 C 7.46875 -18.226562 6.480469 -17.96875 5.542969 -17.492188 C 4.605469 -16.996094 3.800781 -16.300781 3.101562 -15.382812 C 2.441406 -14.519531 1.945312 -13.546875 1.617188 -12.480469 C 1.265625 -11.417969 1.101562 -10.277344 1.101562 -9.105469 C 1.101562 -7.929688 1.265625 -6.792969 1.617188 -5.726562 C 1.945312 -4.644531 2.441406 -3.6875 3.101562 -2.84375 C 3.800781 -1.925781 4.605469 -1.210938 5.542969 -0.734375 C 6.480469 -0.238281 7.46875 0 8.5 0 C 9.527344 0 10.5 -0.238281 11.433594 -0.734375 C 12.351562 -1.210938 13.179688 -1.925781 13.875 -2.84375 C 14.539062 -3.6875 15.03125 -4.644531 15.382812 -5.726562 C 15.710938 -6.792969 15.894531 -7.929688 15.894531 -9.105469 C 15.894531 -10.277344 15.710938 -11.417969 15.382812 -12.480469 C 15.03125 -13.546875 14.539062 -14.519531 13.875 -15.382812 Z M 8.5 -3.632812 C 7.984375 -3.632812 7.488281 -3.78125 7.046875 -4.074219 C 6.589844 -4.367188 6.1875 -4.753906 5.855469 -5.25 C 5.507812 -5.746094 5.230469 -6.332031 5.027344 -6.992188 C 4.828125 -7.652344 4.734375 -8.351562 4.734375 -9.105469 C 4.734375 -9.839844 4.828125 -10.554688 5.027344 -11.214844 C 5.230469 -11.875 5.507812 -12.445312 5.855469 -12.957031 C 6.1875 -13.453125 6.589844 -13.859375 7.046875 -14.152344 C 7.488281 -14.445312 7.984375 -14.59375 8.5 -14.59375 C 9.011719 -14.59375 9.488281 -14.445312 9.949219 -14.152344 C 10.390625 -13.859375 10.792969 -13.453125 11.125 -12.957031 C 11.453125 -12.445312 11.730469 -11.875 11.929688 -11.214844 C 12.132812 -10.554688 12.242188 -9.839844 12.242188 -9.105469 C 12.242188 -8.351562 12.132812 -7.652344 11.929688 -6.992188 C 11.730469 -6.332031 11.453125 -5.746094 11.125 -5.25 C 10.792969 -4.753906 10.390625 -4.367188 9.949219 -4.074219 C 9.488281 -3.78125 9.011719 -3.632812 8.5 -3.632812 Z M 8.5 -3.632812 "/></g></g></g><g fill="#ffc1b2" fill-opacity="0.502"><g transform="translate(148.961173, 25.108391)"><g><path d="M 15.015625 -0.457031 L 14.738281 -0.679688 C 14.445312 -0.917969 14.1875 -1.210938 13.988281 -1.542969 L 11.710938 -5.175781 C 11.636719 -5.285156 11.601562 -5.414062 11.636719 -5.5625 C 11.671875 -5.691406 11.746094 -5.800781 11.875 -5.890625 C 12.335938 -6.222656 12.738281 -6.589844 13.070312 -7.011719 C 13.5625 -7.617188 13.949219 -8.316406 14.207031 -9.085938 C 14.464844 -9.855469 14.609375 -10.664062 14.609375 -11.507812 C 14.609375 -12.351562 14.464844 -13.179688 14.207031 -13.949219 C 13.949219 -14.722656 13.5625 -15.417969 13.070312 -16.042969 C 12.480469 -16.738281 11.765625 -17.289062 10.957031 -17.675781 C 10.132812 -18.042969 9.234375 -18.246094 8.277344 -18.246094 L 2.476562 -18.246094 C 2.347656 -18.246094 2.257812 -18.191406 2.222656 -18.078125 C 2.164062 -17.96875 2.183594 -17.878906 2.277344 -17.785156 C 2.570312 -17.457031 2.734375 -17.070312 2.734375 -16.628906 L 2.734375 -1.578125 C 2.734375 -1.15625 2.589844 -0.789062 2.3125 -0.476562 C 2.203125 -0.367188 2.183594 -0.273438 2.238281 -0.164062 C 2.277344 -0.0546875 2.367188 0 2.515625 0 L 6.625 0 C 6.734375 0 6.828125 -0.0351562 6.863281 -0.148438 C 6.902344 -0.257812 6.902344 -0.347656 6.828125 -0.457031 C 6.515625 -0.789062 6.371094 -1.15625 6.371094 -1.597656 L 6.371094 -4.277344 C 6.371094 -4.421875 6.40625 -4.550781 6.515625 -4.664062 C 6.625 -4.773438 6.753906 -4.828125 6.902344 -4.828125 L 7.34375 -4.828125 C 7.527344 -4.828125 7.691406 -4.734375 7.800781 -4.570312 L 10.058594 -0.9375 C 10.148438 -0.769531 10.132812 -0.625 10.023438 -0.476562 L 10.003906 -0.457031 C 9.929688 -0.347656 9.929688 -0.257812 9.984375 -0.148438 C 10.023438 -0.0351562 10.113281 0 10.242188 0 L 14.886719 0 C 15.015625 0 15.085938 -0.0546875 15.125 -0.164062 C 15.160156 -0.273438 15.125 -0.367188 15.015625 -0.457031 Z M 10.261719 -9.324219 C 9.800781 -8.738281 9.140625 -8.460938 8.277344 -8.460938 L 6.902344 -8.460938 C 6.753906 -8.460938 6.625 -8.5 6.515625 -8.609375 C 6.40625 -8.71875 6.371094 -8.847656 6.371094 -8.992188 L 6.371094 -14.058594 C 6.371094 -14.207031 6.40625 -14.335938 6.515625 -14.445312 C 6.625 -14.554688 6.753906 -14.609375 6.902344 -14.609375 L 8.277344 -14.609375 C 8.9375 -14.609375 9.433594 -14.464844 9.800781 -14.171875 C 10.167969 -13.875 10.425781 -13.546875 10.609375 -13.179688 C 10.773438 -12.8125 10.882812 -12.464844 10.921875 -12.132812 C 10.957031 -11.800781 10.976562 -11.582031 10.976562 -11.507812 C 10.976562 -11.066406 10.902344 -10.664062 10.792969 -10.296875 C 10.664062 -9.929688 10.480469 -9.601562 10.261719 -9.324219 Z M 10.261719 -9.324219 "/></g></g></g><g fill="#ffc1b2" fill-opacity="0.502"><g transform="translate(166.306491, 25.108391)"><g><path d="M 13.363281 -18.375 C 13.050781 -18.078125 12.683594 -17.953125 12.28125 -17.953125 L 2.496094 -17.953125 C 2.367188 -17.953125 2.277344 -17.894531 2.238281 -17.785156 C 2.183594 -17.675781 2.183594 -17.585938 2.257812 -17.492188 L 2.3125 -17.4375 C 2.605469 -17.105469 2.753906 -16.722656 2.753906 -16.28125 L 2.753906 -1.375 C 2.753906 -1.15625 2.714844 -0.953125 2.644531 -0.753906 C 2.570312 -0.550781 2.460938 -0.367188 2.3125 -0.21875 L 2.257812 -0.164062 C 2.183594 -0.0546875 2.183594 0.0351562 2.238281 0.148438 C 2.277344 0.257812 2.367188 0.292969 2.496094 0.292969 L 12.28125 0.292969 C 12.683594 0.292969 13.050781 0.441406 13.363281 0.714844 C 13.453125 0.808594 13.5625 0.824219 13.675781 0.769531 C 13.785156 0.734375 13.859375 0.640625 13.859375 0.496094 L 13.859375 -3.597656 C 13.859375 -3.707031 13.804688 -3.800781 13.691406 -3.855469 C 13.582031 -3.890625 13.472656 -3.871094 13.398438 -3.800781 C 13.070312 -3.488281 12.683594 -3.339844 12.242188 -3.339844 L 6.847656 -3.339844 C 6.71875 -3.339844 6.609375 -3.378906 6.515625 -3.46875 C 6.425781 -3.542969 6.386719 -3.652344 6.386719 -3.800781 L 6.386719 -6.554688 C 6.386719 -6.679688 6.425781 -6.792969 6.515625 -6.882812 C 6.609375 -6.957031 6.71875 -7.011719 6.847656 -7.011719 L 8.460938 -7.011719 C 8.902344 -7.011719 9.289062 -6.847656 9.617188 -6.554688 C 9.710938 -6.480469 9.800781 -6.480469 9.910156 -6.535156 C 10.023438 -6.589844 10.078125 -6.679688 10.078125 -6.792969 L 10.078125 -10.867188 C 10.078125 -10.976562 10.023438 -11.050781 9.910156 -11.105469 C 9.800781 -11.160156 9.710938 -11.160156 9.617188 -11.105469 C 9.289062 -10.792969 8.902344 -10.644531 8.460938 -10.644531 L 6.847656 -10.644531 C 6.71875 -10.644531 6.609375 -10.683594 6.515625 -10.773438 C 6.425781 -10.847656 6.386719 -10.957031 6.386719 -11.105469 L 6.386719 -13.859375 C 6.386719 -13.988281 6.425781 -14.097656 6.515625 -14.1875 C 6.609375 -14.261719 6.71875 -14.316406 6.847656 -14.316406 L 12.242188 -14.316406 C 12.683594 -14.316406 13.070312 -14.152344 13.398438 -13.859375 C 13.472656 -13.765625 13.582031 -13.746094 13.691406 -13.804688 C 13.804688 -13.839844 13.859375 -13.929688 13.859375 -14.058594 L 13.859375 -18.171875 C 13.859375 -18.28125 13.785156 -18.375 13.675781 -18.429688 C 13.5625 -18.464844 13.453125 -18.445312 13.363281 -18.375 Z M 13.363281 -18.375 "/></g></g></g><g fill="#000000" fill-opacity="1"><g transform="translate(4.64565, 25.314595)"><g><path d="M 19.878906 -1.542969 L 19.878906 -16.703125 C 19.878906 -17.105469 20.007812 -17.472656 20.300781 -17.785156 C 20.375 -17.878906 20.390625 -17.96875 20.355469 -18.078125 C 20.300781 -18.191406 20.226562 -18.246094 20.117188 -18.246094 L 16.246094 -18.246094 L 16.226562 -18.226562 L 16.226562 -18.246094 L 15.730469 -18.246094 C 15.601562 -18.246094 15.511719 -18.191406 15.472656 -18.078125 C 15.417969 -17.96875 15.417969 -17.878906 15.492188 -17.785156 C 15.566406 -17.675781 15.546875 -17.601562 15.472656 -17.546875 L 11.691406 -14.058594 C 11.5625 -13.949219 11.417969 -13.914062 11.269531 -13.914062 C 11.125 -13.914062 10.996094 -13.949219 10.882812 -14.058594 L 7.046875 -17.585938 C 6.976562 -17.640625 6.976562 -17.695312 7.046875 -17.769531 C 7.121094 -17.859375 7.140625 -17.96875 7.101562 -18.078125 C 7.046875 -18.191406 6.957031 -18.246094 6.828125 -18.246094 L 2.496094 -18.246094 C 2.367188 -18.246094 2.277344 -18.191406 2.238281 -18.078125 C 2.183594 -17.96875 2.183594 -17.878906 2.257812 -17.785156 L 2.277344 -17.769531 C 2.550781 -17.457031 2.699219 -17.089844 2.699219 -16.683594 L 2.699219 -1.558594 C 2.699219 -1.136719 2.550781 -0.769531 2.277344 -0.476562 L 2.257812 -0.457031 C 2.183594 -0.347656 2.183594 -0.257812 2.238281 -0.148438 C 2.277344 -0.0351562 2.367188 0 2.496094 0 L 6.554688 0 C 6.664062 0 6.753906 -0.0351562 6.808594 -0.148438 C 6.847656 -0.257812 6.847656 -0.347656 6.792969 -0.457031 L 6.753906 -0.496094 C 6.460938 -0.789062 6.332031 -1.15625 6.332031 -1.578125 L 6.332031 -12.703125 C 6.332031 -12.8125 6.371094 -12.886719 6.480469 -12.921875 C 6.589844 -12.957031 6.679688 -12.957031 6.773438 -12.886719 L 10.882812 -9.066406 C 10.996094 -8.957031 11.125 -8.902344 11.289062 -8.902344 C 11.433594 -8.902344 11.582031 -8.957031 11.691406 -9.066406 L 15.804688 -12.886719 C 15.878906 -12.957031 15.96875 -12.957031 16.078125 -12.921875 C 16.1875 -12.886719 16.246094 -12.8125 16.246094 -12.703125 L 16.246094 -1.597656 C 16.246094 -1.191406 16.097656 -0.824219 15.804688 -0.515625 L 15.765625 -0.457031 C 15.695312 -0.347656 15.695312 -0.257812 15.75 -0.148438 C 15.785156 -0.0351562 15.878906 0 16.003906 0 L 20.117188 0 C 20.226562 0 20.300781 -0.0351562 20.355469 -0.148438 C 20.390625 -0.257812 20.375 -0.347656 20.300781 -0.457031 C 20.007812 -0.753906 19.878906 -1.121094 19.878906 -1.542969 Z M 19.878906 -1.542969 "/></g></g></g><g fill="#000000" fill-opacity="1"><g transform="translate(27.222101, 25.314595)"><g><path d="M 13.875 -15.382812 C 13.179688 -16.300781 12.351562 -16.996094 11.433594 -17.492188 C 10.5 -17.96875 9.527344 -18.226562 8.5 -18.226562 C 7.46875 -18.226562 6.480469 -17.96875 5.542969 -17.492188 C 4.605469 -16.996094 3.800781 -16.300781 3.101562 -15.382812 C 2.441406 -14.519531 1.945312 -13.546875 1.617188 -12.480469 C 1.265625 -11.417969 1.101562 -10.277344 1.101562 -9.105469 C 1.101562 -7.929688 1.265625 -6.792969 1.617188 -5.726562 C 1.945312 -4.644531 2.441406 -3.6875 3.101562 -2.84375 C 3.800781 -1.925781 4.605469 -1.210938 5.542969 -0.734375 C 6.480469 -0.238281 7.46875 0 8.5 0 C 9.527344 0 10.5 -0.238281 11.433594 -0.734375 C 12.351562 -1.210938 13.179688 -1.925781 13.875 -2.84375 C 14.539062 -3.6875 15.03125 -4.644531 15.382812 -5.726562 C 15.710938 -6.792969 15.894531 -7.929688 15.894531 -9.105469 C 15.894531 -10.277344 15.710938 -11.417969 15.382812 -12.480469 C 15.03125 -13.546875 14.539062 -14.519531 13.875 -15.382812 Z M 8.5 -3.632812 C 7.984375 -3.632812 7.488281 -3.78125 7.046875 -4.074219 C 6.589844 -4.367188 6.1875 -4.753906 5.855469 -5.25 C 5.507812 -5.746094 5.230469 -6.332031 5.027344 -6.992188 C 4.828125 -7.652344 4.734375 -8.351562 4.734375 -9.105469 C 4.734375 -9.839844 4.828125 -10.554688 5.027344 -11.214844 C 5.230469 -11.875 5.507812 -12.445312 5.855469 -12.957031 C 6.1875 -13.453125 6.589844 -13.859375 7.046875 -14.152344 C 7.488281 -14.445312 7.984375 -14.59375 8.5 -14.59375 C 9.011719 -14.59375 9.488281 -14.445312 9.949219 -14.152344 C 10.390625 -13.859375 10.792969 -13.453125 11.125 -12.957031 C 11.453125 -12.445312 11.730469 -11.875 11.929688 -11.214844 C 12.132812 -10.554688 12.242188 -9.839844 12.242188 -9.105469 C 12.242188 -8.351562 12.132812 -7.652344 11.929688 -6.992188 C 11.730469 -6.332031 11.453125 -5.746094 11.125 -5.25 C 10.792969 -4.753906 10.390625 -4.367188 9.949219 -4.074219 C 9.488281 -3.78125 9.011719 -3.632812 8.5 -3.632812 Z M 8.5 -3.632812 "/></g></g></g><g fill="#000000" fill-opacity="1"><g transform="translate(44.218679, 25.314595)"><g><path d="M 16.574219 -0.515625 C 16.097656 -0.882812 15.710938 -1.320312 15.4375 -1.871094 L 12.058594 -8.316406 C 11.785156 -8.847656 11.785156 -9.378906 12.058594 -9.929688 L 15.4375 -16.371094 C 15.710938 -16.90625 16.097656 -17.363281 16.574219 -17.730469 C 16.703125 -17.839844 16.738281 -17.953125 16.667969 -18.078125 C 16.609375 -18.191406 16.519531 -18.246094 16.410156 -18.246094 L 11.875 -18.246094 C 11.746094 -18.246094 11.65625 -18.191406 11.617188 -18.078125 C 11.5625 -17.96875 11.5625 -17.878906 11.636719 -17.785156 C 11.820312 -17.585938 11.839844 -17.363281 11.730469 -17.125 L 9.417969 -12.703125 C 9.304688 -12.480469 9.121094 -12.390625 8.902344 -12.390625 C 8.664062 -12.390625 8.5 -12.480469 8.386719 -12.703125 L 6.074219 -17.144531 C 6.003906 -17.234375 5.984375 -17.34375 6.003906 -17.472656 C 6.019531 -17.585938 6.074219 -17.695312 6.167969 -17.785156 C 6.242188 -17.878906 6.242188 -17.96875 6.203125 -18.078125 C 6.167969 -18.191406 6.074219 -18.246094 5.964844 -18.246094 L 1.394531 -18.246094 C 1.265625 -18.246094 1.175781 -18.191406 1.136719 -18.078125 C 1.101562 -18.007812 1.082031 -17.953125 1.101562 -17.894531 C 1.121094 -17.824219 1.15625 -17.769531 1.210938 -17.730469 L 1.230469 -17.730469 C 1.707031 -17.363281 2.074219 -16.90625 2.367188 -16.371094 L 5.746094 -9.929688 C 6.003906 -9.378906 6.003906 -8.847656 5.746094 -8.316406 L 2.367188 -1.871094 C 2.074219 -1.320312 1.707031 -0.882812 1.230469 -0.515625 L 1.210938 -0.515625 C 1.15625 -0.457031 1.121094 -0.402344 1.101562 -0.347656 C 1.082031 -0.273438 1.101562 -0.21875 1.136719 -0.164062 C 1.175781 -0.0546875 1.265625 0 1.394531 0 L 5.964844 0 C 6.074219 0 6.167969 -0.0351562 6.203125 -0.148438 C 6.242188 -0.257812 6.242188 -0.347656 6.167969 -0.457031 C 6.074219 -0.53125 6.019531 -0.640625 6.003906 -0.769531 C 5.984375 -0.882812 6.003906 -0.992188 6.074219 -1.101562 L 8.386719 -5.542969 C 8.5 -5.746094 8.664062 -5.855469 8.902344 -5.855469 C 9.121094 -5.855469 9.304688 -5.746094 9.417969 -5.542969 L 11.730469 -1.121094 C 11.839844 -0.863281 11.820312 -0.640625 11.636719 -0.457031 C 11.5625 -0.347656 11.5625 -0.257812 11.617188 -0.148438 C 11.65625 -0.0351562 11.746094 0 11.875 0 L 16.410156 0 C 16.519531 0 16.609375 -0.0546875 16.667969 -0.164062 C 16.738281 -0.273438 16.703125 -0.402344 16.574219 -0.515625 Z M 16.574219 -0.515625 "/></g></g></g><g fill="#000000" fill-opacity="1"><g transform="translate(62.041227, 25.314595)"><g><path d="M 15.015625 -0.457031 L 14.738281 -0.679688 C 14.445312 -0.917969 14.1875 -1.210938 13.988281 -1.542969 L 11.710938 -5.175781 C 11.636719 -5.285156 11.601562 -5.414062 11.636719 -5.5625 C 11.671875 -5.691406 11.746094 -5.800781 11.875 -5.890625 C 12.335938 -6.222656 12.738281 -6.589844 13.070312 -7.011719 C 13.5625 -7.617188 13.949219 -8.316406 14.207031 -9.085938 C 14.464844 -9.855469 14.609375 -10.664062 14.609375 -11.507812 C 14.609375 -12.351562 14.464844 -13.179688 14.207031 -13.949219 C 13.949219 -14.722656 13.5625 -15.417969 13.070312 -16.042969 C 12.480469 -16.738281 11.765625 -17.289062 10.957031 -17.675781 C 10.132812 -18.042969 9.234375 -18.246094 8.277344 -18.246094 L 2.476562 -18.246094 C 2.347656 -18.246094 2.257812 -18.191406 2.222656 -18.078125 C 2.164062 -17.96875 2.183594 -17.878906 2.277344 -17.785156 C 2.570312 -17.457031 2.734375 -17.070312 2.734375 -16.628906 L 2.734375 -1.578125 C 2.734375 -1.15625 2.589844 -0.789062 2.3125 -0.476562 C 2.203125 -0.367188 2.183594 -0.273438 2.238281 -0.164062 C 2.277344 -0.0546875 2.367188 0 2.515625 0 L 6.625 0 C 6.734375 0 6.828125 -0.0351562 6.863281 -0.148438 C 6.902344 -0.257812 6.902344 -0.347656 6.828125 -0.457031 C 6.515625 -0.789062 6.371094 -1.15625 6.371094 -1.597656 L 6.371094 -4.277344 C 6.371094 -4.421875 6.40625 -4.550781 6.515625 -4.664062 C 6.625 -4.773438 6.753906 -4.828125 6.902344 -4.828125 L 7.34375 -4.828125 C 7.527344 -4.828125 7.691406 -4.734375 7.800781 -4.570312 L 10.058594 -0.9375 C 10.148438 -0.769531 10.132812 -0.625 10.023438 -0.476562 L 10.003906 -0.457031 C 9.929688 -0.347656 9.929688 -0.257812 9.984375 -0.148438 C 10.023438 -0.0351562 10.113281 0 10.242188 0 L 14.886719 0 C 15.015625 0 15.085938 -0.0546875 15.125 -0.164062 C 15.160156 -0.273438 15.125 -0.367188 15.015625 -0.457031 Z M 10.261719 -9.324219 C 9.800781 -8.738281 9.140625 -8.460938 8.277344 -8.460938 L 6.902344 -8.460938 C 6.753906 -8.460938 6.625 -8.5 6.515625 -8.609375 C 6.40625 -8.71875 6.371094 -8.847656 6.371094 -8.992188 L 6.371094 -14.058594 C 6.371094 -14.207031 6.40625 -14.335938 6.515625 -14.445312 C 6.625 -14.554688 6.753906 -14.609375 6.902344 -14.609375 L 8.277344 -14.609375 C 8.9375 -14.609375 9.433594 -14.464844 9.800781 -14.171875 C 10.167969 -13.875 10.425781 -13.546875 10.609375 -13.179688 C 10.773438 -12.8125 10.882812 -12.464844 10.921875 -12.132812 C 10.957031 -11.800781 10.976562 -11.582031 10.976562 -11.507812 C 10.976562 -11.066406 10.902344 -10.664062 10.792969 -10.296875 C 10.664062 -9.929688 10.480469 -9.601562 10.261719 -9.324219 Z M 10.261719 -9.324219 "/></g></g></g><g fill="#000000" fill-opacity="1"><g transform="translate(79.386545, 25.314595)"><g><path d="M 16.703125 -0.332031 C 16.703125 -0.402344 16.667969 -0.457031 16.609375 -0.496094 C 16.1875 -0.84375 15.914062 -1.285156 15.765625 -1.835938 L 11.378906 -16.996094 C 11.289062 -17.289062 11.34375 -17.566406 11.5625 -17.785156 C 11.617188 -17.878906 11.617188 -17.96875 11.582031 -18.078125 C 11.527344 -18.191406 11.433594 -18.246094 11.324219 -18.246094 L 6.480469 -18.246094 C 6.371094 -18.246094 6.277344 -18.191406 6.222656 -18.078125 C 6.167969 -17.96875 6.167969 -17.878906 6.242188 -17.785156 C 6.460938 -17.566406 6.515625 -17.289062 6.425781 -16.996094 L 2.054688 -1.816406 C 1.910156 -1.304688 1.617188 -0.863281 1.191406 -0.496094 C 1.136719 -0.441406 1.101562 -0.386719 1.101562 -0.332031 C 1.082031 -0.238281 1.101562 -0.164062 1.15625 -0.0898438 C 1.210938 -0.0195312 1.285156 0 1.394531 0 L 5.652344 0 C 5.761719 0 5.855469 -0.0351562 5.890625 -0.148438 C 5.929688 -0.257812 5.929688 -0.347656 5.855469 -0.441406 C 5.636719 -0.660156 5.578125 -0.9375 5.652344 -1.230469 L 6.222656 -3.140625 C 6.277344 -3.339844 6.386719 -3.503906 6.554688 -3.617188 C 6.699219 -3.726562 6.882812 -3.800781 7.101562 -3.800781 L 10.71875 -3.800781 C 10.921875 -3.800781 11.105469 -3.726562 11.269531 -3.617188 C 11.417969 -3.503906 11.527344 -3.339844 11.601562 -3.140625 L 12.152344 -1.230469 C 12.222656 -0.9375 12.152344 -0.679688 11.96875 -0.457031 L 11.96875 -0.441406 C 11.894531 -0.332031 11.894531 -0.238281 11.949219 -0.148438 C 11.984375 -0.0351562 12.078125 0 12.207031 0 L 16.429688 0 C 16.519531 0 16.59375 -0.0195312 16.648438 -0.0898438 C 16.703125 -0.164062 16.722656 -0.238281 16.703125 -0.332031 Z M 10.09375 -7.433594 L 7.726562 -7.433594 C 7.652344 -7.433594 7.597656 -7.453125 7.5625 -7.507812 C 7.507812 -7.5625 7.488281 -7.636719 7.527344 -7.710938 L 8.71875 -11.800781 C 8.738281 -11.894531 8.792969 -11.949219 8.902344 -11.949219 C 9.011719 -11.949219 9.066406 -11.894531 9.105469 -11.800781 L 10.277344 -7.710938 C 10.296875 -7.636719 10.277344 -7.5625 10.242188 -7.507812 C 10.207031 -7.453125 10.148438 -7.433594 10.09375 -7.433594 Z M 10.09375 -7.433594 "/></g></g></g><g fill="#000000" fill-opacity="1"><g transform="translate(97.209092, 25.314595)"><g><path d="M 14.371094 -18.703125 L 14.355469 -18.683594 C 14.023438 -18.390625 13.65625 -18.246094 13.234375 -18.246094 L 3.800781 -18.246094 C 3.359375 -18.246094 2.992188 -18.390625 2.660156 -18.683594 L 2.660156 -18.703125 C 2.550781 -18.757812 2.460938 -18.757812 2.347656 -18.703125 C 2.238281 -18.648438 2.203125 -18.574219 2.203125 -18.464844 L 2.203125 -14.390625 C 2.203125 -14.261719 2.238281 -14.171875 2.347656 -14.132812 C 2.460938 -14.078125 2.550781 -14.078125 2.660156 -14.152344 C 2.992188 -14.445312 3.359375 -14.609375 3.800781 -14.609375 L 6.332031 -14.609375 C 6.425781 -14.609375 6.515625 -14.574219 6.589844 -14.5 C 6.664062 -14.425781 6.699219 -14.335938 6.699219 -14.242188 L 6.699219 -1.617188 C 6.699219 -1.175781 6.554688 -0.789062 6.257812 -0.476562 L 6.242188 -0.457031 C 6.167969 -0.347656 6.167969 -0.257812 6.222656 -0.148438 C 6.257812 -0.0351562 6.351562 0 6.480469 0 L 10.554688 0 C 10.664062 0 10.738281 -0.0351562 10.792969 -0.148438 C 10.847656 -0.257812 10.847656 -0.347656 10.792969 -0.457031 C 10.480469 -0.789062 10.332031 -1.15625 10.332031 -1.597656 L 10.332031 -14.242188 C 10.332031 -14.335938 10.371094 -14.425781 10.445312 -14.5 C 10.515625 -14.574219 10.589844 -14.609375 10.699219 -14.609375 L 13.234375 -14.609375 C 13.675781 -14.609375 14.042969 -14.445312 14.355469 -14.152344 L 14.371094 -14.152344 C 14.464844 -14.078125 14.554688 -14.078125 14.664062 -14.132812 C 14.777344 -14.171875 14.832031 -14.261719 14.832031 -14.390625 L 14.832031 -18.464844 C 14.832031 -18.574219 14.777344 -18.648438 14.664062 -18.703125 C 14.554688 -18.757812 14.464844 -18.757812 14.371094 -18.703125 Z M 14.371094 -18.703125 "/></g></g></g><g fill="#000000" fill-opacity="1"><g transform="translate(114.242377, 25.314595)"><g><path d="M 15.949219 -0.457031 L 15.914062 -0.476562 C 15.621094 -0.789062 15.492188 -1.15625 15.492188 -1.597656 L 15.492188 -16.648438 C 15.492188 -17.070312 15.621094 -17.4375 15.914062 -17.769531 L 15.949219 -17.785156 C 16.003906 -17.878906 16.003906 -17.96875 15.949219 -18.078125 C 15.894531 -18.191406 15.820312 -18.246094 15.710938 -18.246094 L 11.636719 -18.246094 C 11.527344 -18.246094 11.433594 -18.191406 11.378906 -18.078125 C 11.324219 -17.96875 11.324219 -17.878906 11.398438 -17.785156 L 11.417969 -17.785156 C 11.710938 -17.457031 11.855469 -17.070312 11.855469 -16.667969 L 11.855469 -11.546875 C 11.855469 -11.363281 11.785156 -11.214844 11.671875 -11.105469 C 11.546875 -10.996094 11.398438 -10.941406 11.234375 -10.941406 L 6.976562 -10.941406 C 6.792969 -10.941406 6.644531 -10.996094 6.535156 -11.105469 C 6.40625 -11.214844 6.351562 -11.363281 6.351562 -11.546875 L 6.351562 -16.683594 C 6.351562 -17.089844 6.496094 -17.457031 6.792969 -17.785156 C 6.847656 -17.878906 6.847656 -17.96875 6.808594 -18.078125 C 6.753906 -18.191406 6.664062 -18.246094 6.554688 -18.246094 L 2.496094 -18.246094 C 2.367188 -18.246094 2.277344 -18.191406 2.238281 -18.078125 C 2.183594 -17.96875 2.183594 -17.878906 2.257812 -17.785156 L 2.292969 -17.75 C 2.570312 -17.4375 2.714844 -17.070312 2.714844 -16.648438 L 2.714844 -1.617188 C 2.714844 -1.175781 2.570312 -0.789062 2.292969 -0.496094 L 2.257812 -0.457031 C 2.183594 -0.347656 2.183594 -0.257812 2.238281 -0.148438 C 2.277344 -0.0351562 2.367188 0 2.496094 0 L 6.554688 0 C 6.664062 0 6.753906 -0.0351562 6.808594 -0.148438 C 6.847656 -0.257812 6.847656 -0.347656 6.792969 -0.457031 C 6.496094 -0.789062 6.351562 -1.15625 6.351562 -1.578125 L 6.351562 -6.699219 C 6.351562 -6.863281 6.40625 -7.011719 6.535156 -7.121094 C 6.644531 -7.230469 6.792969 -7.304688 6.976562 -7.304688 L 11.234375 -7.304688 C 11.398438 -7.304688 11.546875 -7.230469 11.671875 -7.121094 C 11.785156 -7.011719 11.855469 -6.863281 11.855469 -6.699219 L 11.855469 -1.578125 C 11.855469 -1.15625 11.710938 -0.789062 11.417969 -0.476562 L 11.398438 -0.457031 C 11.324219 -0.347656 11.324219 -0.257812 11.378906 -0.148438 C 11.433594 -0.0351562 11.527344 0 11.636719 0 L 15.710938 0 C 15.820312 0 15.894531 -0.0351562 15.949219 -0.148438 C 16.003906 -0.257812 16.003906 -0.347656 15.949219 -0.457031 Z M 15.949219 -0.457031 "/></g></g></g><g fill="#000000" fill-opacity="1"><g transform="translate(132.450381, 25.314595)"><g><path d="M 13.875 -15.382812 C 13.179688 -16.300781 12.351562 -16.996094 11.433594 -17.492188 C 10.5 -17.96875 9.527344 -18.226562 8.5 -18.226562 C 7.46875 -18.226562 6.480469 -17.96875 5.542969 -17.492188 C 4.605469 -16.996094 3.800781 -16.300781 3.101562 -15.382812 C 2.441406 -14.519531 1.945312 -13.546875 1.617188 -12.480469 C 1.265625 -11.417969 1.101562 -10.277344 1.101562 -9.105469 C 1.101562 -7.929688 1.265625 -6.792969 1.617188 -5.726562 C 1.945312 -4.644531 2.441406 -3.6875 3.101562 -2.84375 C 3.800781 -1.925781 4.605469 -1.210938 5.542969 -0.734375 C 6.480469 -0.238281 7.46875 0 8.5 0 C 9.527344 0 10.5 -0.238281 11.433594 -0.734375 C 12.351562 -1.210938 13.179688 -1.925781 13.875 -2.84375 C 14.539062 -3.6875 15.03125 -4.644531 15.382812 -5.726562 C 15.710938 -6.792969 15.894531 -7.929688 15.894531 -9.105469 C 15.894531 -10.277344 15.710938 -11.417969 15.382812 -12.480469 C 15.03125 -13.546875 14.539062 -14.519531 13.875 -15.382812 Z M 8.5 -3.632812 C 7.984375 -3.632812 7.488281 -3.78125 7.046875 -4.074219 C 6.589844 -4.367188 6.1875 -4.753906 5.855469 -5.25 C 5.507812 -5.746094 5.230469 -6.332031 5.027344 -6.992188 C 4.828125 -7.652344 4.734375 -8.351562 4.734375 -9.105469 C 4.734375 -9.839844 4.828125 -10.554688 5.027344 -11.214844 C 5.230469 -11.875 5.507812 -12.445312 5.855469 -12.957031 C 6.1875 -13.453125 6.589844 -13.859375 7.046875 -14.152344 C 7.488281 -14.445312 7.984375 -14.59375 8.5 -14.59375 C 9.011719 -14.59375 9.488281 -14.445312 9.949219 -14.152344 C 10.390625 -13.859375 10.792969 -13.453125 11.125 -12.957031 C 11.453125 -12.445312 11.730469 -11.875 11.929688 -11.214844 C 12.132812 -10.554688 12.242188 -9.839844 12.242188 -9.105469 C 12.242188 -8.351562 12.132812 -7.652344 11.929688 -6.992188 C 11.730469 -6.332031 11.453125 -5.746094 11.125 -5.25 C 10.792969 -4.753906 10.390625 -4.367188 9.949219 -4.074219 C 9.488281 -3.78125 9.011719 -3.632812 8.5 -3.632812 Z M 8.5 -3.632812 "/></g></g></g><g fill="#000000" fill-opacity="1"><g transform="translate(149.446959, 25.314595)"><g><path d="M 15.015625 -0.457031 L 14.738281 -0.679688 C 14.445312 -0.917969 14.1875 -1.210938 13.988281 -1.542969 L 11.710938 -5.175781 C 11.636719 -5.285156 11.601562 -5.414062 11.636719 -5.5625 C 11.671875 -5.691406 11.746094 -5.800781 11.875 -5.890625 C 12.335938 -6.222656 12.738281 -6.589844 13.070312 -7.011719 C 13.5625 -7.617188 13.949219 -8.316406 14.207031 -9.085938 C 14.464844 -9.855469 14.609375 -10.664062 14.609375 -11.507812 C 14.609375 -12.351562 14.464844 -13.179688 14.207031 -13.949219 C 13.949219 -14.722656 13.5625 -15.417969 13.070312 -16.042969 C 12.480469 -16.738281 11.765625 -17.289062 10.957031 -17.675781 C 10.132812 -18.042969 9.234375 -18.246094 8.277344 -18.246094 L 2.476562 -18.246094 C 2.347656 -18.246094 2.257812 -18.191406 2.222656 -18.078125 C 2.164062 -17.96875 2.183594 -17.878906 2.277344 -17.785156 C 2.570312 -17.457031 2.734375 -17.070312 2.734375 -16.628906 L 2.734375 -1.578125 C 2.734375 -1.15625 2.589844 -0.789062 2.3125 -0.476562 C 2.203125 -0.367188 2.183594 -0.273438 2.238281 -0.164062 C 2.277344 -0.0546875 2.367188 0 2.515625 0 L 6.625 0 C 6.734375 0 6.828125 -0.0351562 6.863281 -0.148438 C 6.902344 -0.257812 6.902344 -0.347656 6.828125 -0.457031 C 6.515625 -0.789062 6.371094 -1.15625 6.371094 -1.597656 L 6.371094 -4.277344 C 6.371094 -4.421875 6.40625 -4.550781 6.515625 -4.664062 C 6.625 -4.773438 6.753906 -4.828125 6.902344 -4.828125 L 7.34375 -4.828125 C 7.527344 -4.828125 7.691406 -4.734375 7.800781 -4.570312 L 10.058594 -0.9375 C 10.148438 -0.769531 10.132812 -0.625 10.023438 -0.476562 L 10.003906 -0.457031 C 9.929688 -0.347656 9.929688 -0.257812 9.984375 -0.148438 C 10.023438 -0.0351562 10.113281 0 10.242188 0 L 14.886719 0 C 15.015625 0 15.085938 -0.0546875 15.125 -0.164062 C 15.160156 -0.273438 15.125 -0.367188 15.015625 -0.457031 Z M 10.261719 -9.324219 C 9.800781 -8.738281 9.140625 -8.460938 8.277344 -8.460938 L 6.902344 -8.460938 C 6.753906 -8.460938 6.625 -8.5 6.515625 -8.609375 C 6.40625 -8.71875 6.371094 -8.847656 6.371094 -8.992188 L 6.371094 -14.058594 C 6.371094 -14.207031 6.40625 -14.335938 6.515625 -14.445312 C 6.625 -14.554688 6.753906 -14.609375 6.902344 -14.609375 L 8.277344 -14.609375 C 8.9375 -14.609375 9.433594 -14.464844 9.800781 -14.171875 C 10.167969 -13.875 10.425781 -13.546875 10.609375 -13.179688 C 10.773438 -12.8125 10.882812 -12.464844 10.921875 -12.132812 C 10.957031 -11.800781 10.976562 -11.582031 10.976562 -11.507812 C 10.976562 -11.066406 10.902344 -10.664062 10.792969 -10.296875 C 10.664062 -9.929688 10.480469 -9.601562 10.261719 -9.324219 Z M 10.261719 -9.324219 "/></g></g></g><g fill="#000000" fill-opacity="1"><g transform="translate(166.792277, 25.314595)"><g><path d="M 13.363281 -18.375 C 13.050781 -18.078125 12.683594 -17.953125 12.28125 -17.953125 L 2.496094 -17.953125 C 2.367188 -17.953125 2.277344 -17.894531 2.238281 -17.785156 C 2.183594 -17.675781 2.183594 -17.585938 2.257812 -17.492188 L 2.3125 -17.4375 C 2.605469 -17.105469 2.753906 -16.722656 2.753906 -16.28125 L 2.753906 -1.375 C 2.753906 -1.15625 2.714844 -0.953125 2.644531 -0.753906 C 2.570312 -0.550781 2.460938 -0.367188 2.3125 -0.21875 L 2.257812 -0.164062 C 2.183594 -0.0546875 2.183594 0.0351562 2.238281 0.148438 C 2.277344 0.257812 2.367188 0.292969 2.496094 0.292969 L 12.28125 0.292969 C 12.683594 0.292969 13.050781 0.441406 13.363281 0.714844 C 13.453125 0.808594 13.5625 0.824219 13.675781 0.769531 C 13.785156 0.734375 13.859375 0.640625 13.859375 0.496094 L 13.859375 -3.597656 C 13.859375 -3.707031 13.804688 -3.800781 13.691406 -3.855469 C 13.582031 -3.890625 13.472656 -3.871094 13.398438 -3.800781 C 13.070312 -3.488281 12.683594 -3.339844 12.242188 -3.339844 L 6.847656 -3.339844 C 6.71875 -3.339844 6.609375 -3.378906 6.515625 -3.46875 C 6.425781 -3.542969 6.386719 -3.652344 6.386719 -3.800781 L 6.386719 -6.554688 C 6.386719 -6.679688 6.425781 -6.792969 6.515625 -6.882812 C 6.609375 -6.957031 6.71875 -7.011719 6.847656 -7.011719 L 8.460938 -7.011719 C 8.902344 -7.011719 9.289062 -6.847656 9.617188 -6.554688 C 9.710938 -6.480469 9.800781 -6.480469 9.910156 -6.535156 C 10.023438 -6.589844 10.078125 -6.679688 10.078125 -6.792969 L 10.078125 -10.867188 C 10.078125 -10.976562 10.023438 -11.050781 9.910156 -11.105469 C 9.800781 -11.160156 9.710938 -11.160156 9.617188 -11.105469 C 9.289062 -10.792969 8.902344 -10.644531 8.460938 -10.644531 L 6.847656 -10.644531 C 6.71875 -10.644531 6.609375 -10.683594 6.515625 -10.773438 C 6.425781 -10.847656 6.386719 -10.957031 6.386719 -11.105469 L 6.386719 -13.859375 C 6.386719 -13.988281 6.425781 -14.097656 6.515625 -14.1875 C 6.609375 -14.261719 6.71875 -14.316406 6.847656 -14.316406 L 12.242188 -14.316406 C 12.683594 -14.316406 13.070312 -14.152344 13.398438 -13.859375 C 13.472656 -13.765625 13.582031 -13.746094 13.691406 -13.804688 C 13.804688 -13.839844 13.859375 -13.929688 13.859375 -14.058594 L 13.859375 -18.171875 C 13.859375 -18.28125 13.785156 -18.375 13.675781 -18.429688 C 13.5625 -18.464844 13.453125 -18.445312 13.363281 -18.375 Z M 13.363281 -18.375 "/></g></g></g></svg>